HIERARCHY
ROOT hip
{
	OFFSET 0.000000 0.000000 0.000000
	CHANNELS 6 Xposition Yposition Zposition Xrotation Zrotation Yrotation 
	JOINT abdomen
	{
		OFFSET 0.000000 3.422050 0.000000
		CHANNELS 3 Xrotation Zrotation Yrotation 
		JOINT chest
		{
			OFFSET 0.000000 8.486693 -0.684411
			CHANNELS 3 Xrotation Zrotation Yrotation 
			JOINT neck
			{
				OFFSET 0.000000 10.266162 -0.273764
				CHANNELS 3 Xrotation Zrotation Yrotation 
				JOINT head
				{
					OFFSET 0.000000 3.148285 0.000000
					CHANNELS 3 Xrotation Zrotation Yrotation 
					End Site
					{
						OFFSET 0.000000 3.148289 0.000000
					}
				}
			}
			JOINT lCollar
			{
				OFFSET 3.422053 6.707223 -0.821293
				CHANNELS 3 Yrotation Zrotation Xrotation 
				JOINT lShldr
				{
					OFFSET 3.285171 0.000000 0.000000
					CHANNELS 3 Zrotation Yrotation Xrotation 
					JOINT lForeArm
					{
						OFFSET 10.129278 0.000000 0.000000
						CHANNELS 3 Yrotation Zrotation Xrotation 
						JOINT lHand
						{
							OFFSET 8.486692 0.000000 0.000000
							CHANNELS 3 Zrotation Yrotation Xrotation 
							End Site
							{
								OFFSET 4.106464 0.000000 0.000000
							}
						}
					}
				}
			}
			JOINT rCollar
			{
				OFFSET -3.558935 6.707223 -0.821293
				CHANNELS 3 Yrotation Zrotation Xrotation 
				JOINT rShldr
				{
					OFFSET -3.148289 0.000000 0.000000
					CHANNELS 3 Zrotation Yrotation Xrotation 
					JOINT rForeArm
					{
						OFFSET -10.266159 0.000000 0.000000
						CHANNELS 3 Yrotation Zrotation Xrotation 
						JOINT rHand
						{
							OFFSET -8.349810 0.000000 0.000000
							CHANNELS 3 Zrotation Yrotation Xrotation 
							End Site
							{
								OFFSET -4.106464 0.000000 0.000000
							}
						}
					}
				}
			}
		}
	}
	JOINT lThigh
	{
		OFFSET 5.338403 -1.642589 1.368821
		CHANNELS 3 Xrotation Zrotation Yrotation 
		JOINT lShin
		{
			OFFSET -2.053232 -20.121670 0.000000
			CHANNELS 3 Xrotation Zrotation Yrotation 
			JOINT lFoot
			{
				OFFSET 0.000000 -19.300380 -1.231939
				CHANNELS 3 Xrotation Yrotation Zrotation 
				End Site
				{
					OFFSET 0.000000 -2.463878 4.653993
				}
			}
		}
	}
	JOINT rThigh
	{
		OFFSET -5.338403 -1.642589 1.368821
		CHANNELS 3 Xrotation Zrotation Yrotation 
		JOINT rShin
		{
			OFFSET 2.053232 -20.121670 0.000000
			CHANNELS 3 Xrotation Zrotation Yrotation 
			JOINT rFoot
			{
				OFFSET 0.000000 -19.300380 -1.231939
				CHANNELS 3 Xrotation Yrotation Zrotation 
				End Site
				{
					OFFSET 0.000000 -2.463878 4.653993
				}
			}
		}
	}
}
MOTION
Frames: 18
Frame Time: 0.033264
0.000000 43.528500 0.000000 0.000000 0.000000 0.000000 0.000000 0.000000 0.000000 0.000000 0.000000 0.000000 0.000000 0.000000 0.000000 0.000000 0.000000 0.000000 0.000000 0.000000 0.000000 0.000000 0.000000 0.000000 0.000000 0.000000 0.000000 0.000000 0.000000 0.000000 0.000000 0.000000 0.000000 0.000000 0.000000 0.000000 0.000000 0.000000 0.000000 0.000000 0.000000 0.000000 0.000000 0.000000 0.000000 0.000000 0.000000 0.000000 0.000000 0.000000 0.000000 0.000000 0.000000 0.000000 0.000000 0.000000 0.000000 0.000000 0.000000 0.000000 
0.000000 17.146671 7.890815 15.003202 0.000000 -180.000000 -23.345245 0.000000 0.000000 -8.430447 -0.003386 -0.450349 -0.229069 0.000000 0.000000 -0.473854 0.000000 0.000000 -0.001347 -8.002656 -0.194655 -70.742943 55.997841 -0.452667 -8.002649 0.000000 0.000000 -7.000325 0.000000 0.000000 -0.002182 7.999156 -0.194408 70.739632 -56.001102 -0.453200 7.999141 0.000000 0.000000 6.996825 0.000000 0.000000 -22.684980 37.350353 14.766002 125.076118 29.770466 -9.811818 65.757568 13.809808 4.719245 -22.683577 -37.354710 -14.769588 125.075874 -29.768782 9.806954 65.757645 -13.814689 -4.720296 
0.000000 17.078587 7.890815 15.444283 0.000000 -180.000000 -23.345247 0.000000 0.000000 -8.430447 -0.003386 -0.450349 -0.285762 0.028950 0.002459 -0.939212 0.000000 0.000000 -1.266438 -6.840443 0.139841 -72.525887 56.671719 -1.848414 -9.432773 -1.679196 -0.092907 -6.160415 1.174334 0.075435 1.264444 6.833785 0.147448 72.518005 -56.672955 -1.845176 9.428904 1.705065 -0.092341 6.133484 -1.170083 0.072628 -22.407818 37.754631 14.789701 125.076118 29.770466 -9.811818 65.683289 14.007249 5.134053 -22.406479 -37.759026 -14.794342 125.075874 -29.768782 9.806954 65.684006 -14.011613 -5.135619 
0.000000 17.010502 7.890815 15.888519 0.000000 -180.000000 -23.345245 0.000000 0.000000 -8.430447 -0.003386 -0.450349 -0.342457 0.057903 0.004890 -1.405095 0.000000 0.000000 -2.540543 -5.681303 0.500768 -74.373146 57.321606 -3.309299 -10.875131 -3.364475 -0.228712 -5.316252 2.350461 0.168398 2.540281 5.671616 0.515856 74.360298 -57.320942 -3.301909 10.871122 3.416523 -0.228240 5.265851 -2.341996 0.163198 -22.128834 38.158916 14.816028 125.076103 29.770470 -9.811821 65.607452 14.204209 5.549585 -22.127552 -38.163361 -14.821731 125.075874 -29.768782 9.806954 65.608810 -14.208062 -5.551664 
0.000000 16.942417 7.890815 16.332838 0.000000 -180.000000 -23.345247 0.000000 0.000000 -8.430447 -0.003386 -0.450349 -0.399153 0.086861 0.007292 -1.871488 0.000000 0.000000 -3.824101 -4.526467 0.888193 -76.285812 57.945728 -4.836429 -12.331291 -5.053505 -0.408267 -4.467368 3.527748 0.279079 3.825771 4.513897 0.910882 76.267662 -57.943321 -4.824522 12.327426 5.131983 -0.408581 4.393453 -3.515088 0.271899 -21.847980 38.563202 14.845027 125.076118 29.770470 -9.811818 65.530060 14.400676 5.965840 -21.846746 -38.567684 -14.851797 125.075890 -29.768789 9.806956 65.532043 -14.404016 -5.968429 
0.000000 16.874332 7.890815 16.777245 0.000000 -180.000000 -23.345245 0.000000 0.000000 -8.430446 -0.003386 -0.450349 -0.455851 0.115822 0.009666 -2.338377 0.000000 0.000000 -5.117525 -3.377182 1.302164 -78.264595 58.542271 -6.430527 -13.802858 -6.743876 -0.632466 -3.613287 4.705546 0.407677 5.121330 3.361889 1.332576 78.240776 -58.538273 -6.413713 13.799494 6.848980 -0.634302 3.515812 -4.688694 0.398934 -21.565208 38.967461 14.876746 125.076118 29.770466 -9.811819 65.451111 14.596623 6.382815 -21.564011 -38.971977 -14.884593 125.075874 -29.768782 9.806954 65.453751 -14.599463 -6.385910 
0.000000 16.806248 7.890815 17.221718 0.000000 -180.000000 -23.345245 0.000000 0.000000 -8.430446 -0.003386 -0.450349 -0.512551 0.144788 0.012011 -2.805747 0.000000 0.000000 -6.421208 -2.234712 1.742712 -80.309776 59.109344 -8.091861 -15.291477 -8.433115 -0.902249 -2.753528 5.883204 0.554407 6.427346 2.216864 1.780969 80.279915 -59.103970 -8.069767 15.289037 8.564971 -0.906386 2.632442 -5.862146 0.544519 -21.280466 39.371658 14.911236 125.076118 29.770466 -9.811818 65.370605 14.792040 6.800504 -21.279293 -39.376209 -14.920159 125.075874 -29.768782 9.806955 65.373901 -14.794377 -6.804102 
0.000000 16.738163 7.890815 17.666245 0.000000 -180.000000 -23.345245 0.000000 0.000000 -8.430447 -0.003386 -0.450349 -0.569252 0.173757 0.014327 -3.273583 0.000000 0.000000 -7.735512 -1.100331 2.209842 -82.421074 59.645119 -9.820162 -16.798836 -10.118685 -1.218594 -1.887600 7.060055 0.719492 7.744187 1.080110 2.256068 82.384735 -59.638515 -9.792377 16.797827 10.277355 -1.225863 1.742849 -7.034757 0.708879 -20.993694 39.775761 14.948535 125.076118 29.770466 -9.811818 65.288551 14.986911 7.218911 -20.992538 -39.780338 -14.958553 125.075874 -29.768782 9.806954 65.292480 -14.988750 -7.223009 
0.000000 16.670078 7.890815 18.110804 0.000000 -180.000000 -23.345245 0.000000 0.000000 -8.430447 -0.003386 -0.450349 -0.625955 0.202729 0.016615 -3.741871 0.000000 0.000000 -9.060764 0.024680 2.703539 -84.597580 60.147678 -11.614528 -18.326632 -11.797989 -1.582520 -1.015007 8.235428 0.903172 9.072179 -0.047080 2.757853 84.554428 -60.140060 -11.580702 18.327642 11.983464 -1.593810 0.846538 -8.205840 0.892253 -20.704861 40.179787 14.988724 125.076118 29.770466 -9.811818 65.204918 15.181209 7.638025 -20.703701 -40.184368 -14.999825 125.075874 -29.768782 9.806954 65.209496 -15.182556 -7.642621 
0.000000 16.601994 7.890815 18.555393 0.000000 -180.000000 -23.345247 0.000000 0.000000 -8.430447 -0.003386 -0.450349 -0.682660 0.231706 0.018875 -4.210594 0.000000 0.000000 -10.397268 1.139036 3.223758 -86.837730 60.615219 -13.473388 -19.876608 -13.468385 -1.995076 -0.135246 9.408645 1.105695 10.411618 -1.163410 3.286279 86.787407 -60.606781 -13.433170 19.880314 13.680585 -2.011340 -0.057001 -9.374694 1.094890 -20.413889 40.583664 15.031828 125.076118 29.770466 -9.811818 65.119759 15.374928 8.057847 -20.412729 -40.588272 -15.044038 125.075874 -29.768782 9.806954 65.125000 -15.375786 -8.062936 
0.000000 16.533909 7.890815 18.999996 0.000000 -180.000000 -23.345249 0.000000 0.000000 -8.430447 -0.003386 -0.450349 -0.739367 0.260685 0.021106 -4.679741 0.000000 0.000000 -11.745280 2.241453 3.770422 -89.139122 61.045856 -15.394389 -21.450520 -15.127186 -2.457342 0.752193 10.579018 1.327325 11.762762 -2.267583 3.841266 89.081360 -61.036892 -15.347476 21.457684 15.365953 -2.479602 -0.968278 -10.540618 1.317052 -20.120728 40.987389 15.077919 125.076118 29.770466 -9.811818 65.033035 15.568044 8.478374 -20.119549 -40.992001 -15.091233 125.075874 -29.768782 9.806954 65.038925 -15.568416 -8.483953 
0.000000 16.465824 7.890815 19.444599 0.000000 -180.000000 -23.345243 0.000000 0.000000 -8.430446 -0.003386 -0.450349 -0.796076 0.289669 0.023308 -5.149291 0.000000 0.000000 -13.105021 3.330653 4.343419 -91.498680 61.437920 -17.374403 -23.050137 -16.771681 -2.970421 1.647829 11.745852 1.568335 13.125833 -3.358311 4.422702 91.433151 -61.428631 -17.320494 23.061613 17.036777 -2.999772 -1.887811 -11.702894 1.559009 -19.825325 41.390923 15.127041 125.076118 29.770466 -9.811818 64.944748 15.760539 8.899601 -19.824123 -41.395550 -15.141476 125.075874 -29.768782 9.806954 64.951309 -15.760429 -8.905666 
0.000000 16.397739 7.890815 19.889183 0.000000 -180.000000 -23.345245 0.000000 0.000000 -8.430447 -0.003386 -0.450349 -0.852786 0.318656 0.025482 -5.619233 0.000000 0.000000 -14.476660 4.405365 4.942599 -93.912346 61.789738 -19.409399 -24.677214 -18.399115 -3.535422 2.552183 12.908449 1.829011 14.500987 -4.434307 5.030429 93.838837 -61.780396 -19.348282 24.693975 18.690229 -3.573044 -2.816125 -12.860812 1.821045 -19.527618 41.794254 15.179268 125.076118 29.770466 -9.811817 64.854935 15.952398 9.321523 -19.526373 -41.798878 -15.194821 125.075874 -29.768782 9.806954 64.862152 -15.951813 -9.328071 
0.000000 16.329655 7.890815 20.333748 0.000000 -180.000000 -23.345245 0.000000 0.000000 -8.430447 -0.003386 -0.450349 -0.909497 0.347647 0.027627 -6.089551 0.000000 0.000000 -15.860334 5.464334 5.567777 -96.375275 62.099792 -21.494549 -26.333502 -20.006729 -4.153454 3.465787 14.066107 2.109651 15.888353 -5.494309 5.664255 96.293648 -62.090694 -21.426065 26.356609 20.323454 -4.200613 -3.753749 -14.013644 2.103453 -19.227541 42.197342 15.234645 125.076118 29.770466 -9.811818 64.763557 16.143608 9.744142 -19.226246 -42.201962 -15.251326 125.075874 -29.768782 9.806954 64.771446 -16.142546 -9.751165 
0.000000 16.261570 7.890815 20.778263 0.000000 -180.000000 -23.345245 0.000000 0.000000 -8.430447 -0.003386 -0.450349 -0.966211 0.376641 0.029743 -6.560228 0.000000 0.000000 -17.256104 6.506320 6.218711 -98.881744 62.366753 -23.624132 -28.020731 -21.591747 -4.825618 4.389174 15.218116 2.410560 17.288002 -6.537068 6.323937 98.791908 -62.358158 -23.548185 28.051357 21.933598 -4.883667 -4.701216 -15.160668 2.406536 -18.925035 42.600166 15.293242 125.076118 29.770466 -9.811818 64.670639 16.334141 10.167444 -18.923687 -42.604794 -15.311067 125.075874 -29.768782 9.806954 64.679192 -16.332611 -10.174942 
0.000000 16.193485 7.890815 21.222727 0.000000 -180.000000 -23.345245 0.000000 0.000000 -8.430447 -0.003386 -0.450349 -1.022926 0.405638 0.031831 -7.031250 0.000000 0.000000 -18.664007 7.530117 6.895124 -101.425270 62.589436 -25.791666 -29.740580 -23.151400 -5.552979 5.322887 16.363770 2.732059 18.699938 -7.561361 7.009183 101.327202 -62.581642 -25.708241 29.780010 23.517796 -5.623373 -5.659067 -16.301151 2.730606 -18.620037 43.002705 15.355121 125.076118 29.770466 -9.811818 64.576172 16.523991 10.591433 -18.618607 -43.007301 -15.374086 125.075874 -29.768782 9.806954 64.585396 -16.521992 -10.599405 
0.000000 16.125401 7.890815 21.667120 0.000000 -180.000000 -23.345247 0.000000 0.000000 -8.430447 -0.003386 -0.450349 -1.079643 0.434639 0.033890 -7.502602 0.000000 0.000000 -20.083996 8.534533 7.596678 -103.511497 63.105637 -27.495222 -31.494673 -24.682919 -6.336555 6.267472 17.502354 3.074474 20.124125 -8.565993 7.719652 103.409386 -63.096928 -27.408451 31.544310 25.073198 -6.420846 -6.627841 -17.434366 3.075982 -18.312471 43.404903 15.420338 125.076118 29.770473 -9.811820 64.480171 16.713133 11.016102 -18.310957 -43.409500 -15.440464 125.075890 -29.768785 9.806954 64.490067 -16.710672 -11.024538 
0.000000 16.057316 7.890815 22.111443 0.000000 -180.000000 -23.345245 0.000000 0.000000 -8.430447 -0.003386 -0.450349 -1.136362 0.463643 0.035921 -7.974266 0.000000 0.000000 -21.515984 9.518418 8.322987 -105.668434 63.592831 -29.270199 -33.284538 -26.183559 -7.177293 7.223473 18.633141 3.438142 21.560448 -9.549805 8.454944 105.561920 -63.583237 -29.179764 33.345879 26.596956 -7.277125 -7.608085 -18.559572 3.442992 -18.002279 43.806778 15.488980 125.076118 29.770462 -9.811815 64.382614 16.901552 11.441446 -18.000669 -43.811352 -15.510267 125.075874 -29.768778 9.806953 64.393204 -16.898636 -11.450347 
